<mxfile host="app.diagrams.net" modified="2023-08-07T11:19:25.344Z" agent="Mozilla/5.0 (Macintosh; Intel Mac OS X 10_15_7) AppleWebKit/605.1.15 (KHTML, like Gecko) Version/16.5.2 Safari/605.1.15" etag="Pn0py0r21ZFTjwhKfoID" version="21.6.6" type="github">
  <diagram name="Страница 1" id="C4cH1xLUQUfybdzY-Pvg">
    <mxGraphModel dx="1536" dy="2060" grid="1" gridSize="10" guides="1" tooltips="1" connect="1" arrows="1" fold="1" page="1" pageScale="1" pageWidth="827" pageHeight="1169" math="0" shadow="0">
      <root>
        <mxCell id="0" />
        <mxCell id="1" parent="0" />
        <mxCell id="oiA-mQmHKhEabUs_qZRi-24" value="" style="rounded=0;whiteSpace=wrap;html=1;" vertex="1" parent="1">
          <mxGeometry x="190" y="-130" width="750" height="310" as="geometry" />
        </mxCell>
        <mxCell id="oiA-mQmHKhEabUs_qZRi-4" value="&lt;span style=&quot;font-size: 20px;&quot;&gt;&lt;b&gt;The main file of this project&lt;/b&gt;&lt;/span&gt;&lt;br style=&quot;font-size: 14px&quot;&gt;It contains instructions inside for intercepting and processing messages in telegram" style="html=1;shadow=0;dashed=0;shape=mxgraph.bootstrap.rrect;rSize=5;strokeColor=#5B646A;html=1;whiteSpace=wrap;fillColor=#6C767D;fontColor=#ffffff;verticalAlign=bottom;align=left;spacing=20;spacingBottom=0;fontSize=14;" vertex="1" parent="1">
          <mxGeometry x="630" y="470" width="250" height="180" as="geometry" />
        </mxCell>
        <mxCell id="oiA-mQmHKhEabUs_qZRi-5" value="bot.py" style="html=1;shadow=0;dashed=0;shape=mxgraph.bootstrap.topButton;rSize=5;perimeter=none;whiteSpace=wrap;fillColor=#697279;strokeColor=#5B646A;fontColor=#ffffff;resizeWidth=1;fontSize=18;align=left;spacing=20;" vertex="1" parent="oiA-mQmHKhEabUs_qZRi-4">
          <mxGeometry width="250" height="50" relative="1" as="geometry" />
        </mxCell>
        <mxCell id="oiA-mQmHKhEabUs_qZRi-15" style="edgeStyle=orthogonalEdgeStyle;rounded=0;orthogonalLoop=1;jettySize=auto;html=1;entryX=0.5;entryY=-0.1;entryDx=0;entryDy=0;entryPerimeter=0;" edge="1" parent="1" source="oiA-mQmHKhEabUs_qZRi-6" target="oiA-mQmHKhEabUs_qZRi-11">
          <mxGeometry relative="1" as="geometry">
            <Array as="points">
              <mxPoint x="365" y="160" />
              <mxPoint x="755" y="160" />
            </Array>
          </mxGeometry>
        </mxCell>
        <mxCell id="oiA-mQmHKhEabUs_qZRi-6" value="&lt;span style=&quot;font-size: 20px;&quot;&gt;&lt;b&gt;The instagram downloader class&lt;/b&gt;&lt;/span&gt;&lt;br style=&quot;font-size: 14px&quot;&gt;Contains classes and methods for uploading content from instagram to temporary storage." style="html=1;shadow=0;dashed=0;shape=mxgraph.bootstrap.rrect;rSize=5;strokeColor=#0071D5;html=1;whiteSpace=wrap;fillColor=#0085FC;fontColor=#ffffff;verticalAlign=bottom;align=left;spacing=20;spacingBottom=0;fontSize=14;" vertex="1" parent="1">
          <mxGeometry x="240" y="-70" width="250" height="180" as="geometry" />
        </mxCell>
        <mxCell id="oiA-mQmHKhEabUs_qZRi-7" value="downloader.py" style="html=1;shadow=0;dashed=0;shape=mxgraph.bootstrap.topButton;rSize=5;perimeter=none;whiteSpace=wrap;fillColor=#0081F4;strokeColor=#0071D5;fontColor=#ffffff;resizeWidth=1;fontSize=18;align=left;spacing=20;" vertex="1" parent="oiA-mQmHKhEabUs_qZRi-6">
          <mxGeometry width="250" height="50" relative="1" as="geometry" />
        </mxCell>
        <mxCell id="oiA-mQmHKhEabUs_qZRi-14" style="edgeStyle=orthogonalEdgeStyle;rounded=0;orthogonalLoop=1;jettySize=auto;html=1;entryX=0.504;entryY=-0.12;entryDx=0;entryDy=0;entryPerimeter=0;" edge="1" parent="1" source="oiA-mQmHKhEabUs_qZRi-8" target="oiA-mQmHKhEabUs_qZRi-11">
          <mxGeometry relative="1" as="geometry" />
        </mxCell>
        <mxCell id="oiA-mQmHKhEabUs_qZRi-8" value="&lt;span style=&quot;font-size: 20px;&quot;&gt;&lt;b&gt;The cloud uploader class&lt;/b&gt;&lt;/span&gt;&lt;br style=&quot;font-size: 14px&quot;&gt;Contains classes and methods for uploading content from a temporary directory to the cloud" style="html=1;shadow=0;dashed=0;shape=mxgraph.bootstrap.rrect;rSize=5;strokeColor=#2B8D40;html=1;whiteSpace=wrap;fillColor=#33A64C;fontColor=#ffffff;verticalAlign=bottom;align=left;spacing=20;spacingBottom=0;fontSize=14;" vertex="1" parent="1">
          <mxGeometry x="631" y="-70" width="250" height="180" as="geometry" />
        </mxCell>
        <mxCell id="oiA-mQmHKhEabUs_qZRi-9" value="uploader.py" style="html=1;shadow=0;dashed=0;shape=mxgraph.bootstrap.topButton;rSize=5;perimeter=none;whiteSpace=wrap;fillColor=#31A14A;strokeColor=#2B8D40;fontColor=#ffffff;resizeWidth=1;fontSize=18;align=left;spacing=20;" vertex="1" parent="oiA-mQmHKhEabUs_qZRi-8">
          <mxGeometry width="250" height="50" relative="1" as="geometry" />
        </mxCell>
        <mxCell id="oiA-mQmHKhEabUs_qZRi-29" style="edgeStyle=orthogonalEdgeStyle;rounded=0;orthogonalLoop=1;jettySize=auto;html=1;entryX=0.5;entryY=-0.04;entryDx=0;entryDy=0;entryPerimeter=0;" edge="1" parent="1" source="oiA-mQmHKhEabUs_qZRi-10" target="oiA-mQmHKhEabUs_qZRi-5">
          <mxGeometry relative="1" as="geometry" />
        </mxCell>
        <mxCell id="oiA-mQmHKhEabUs_qZRi-10" value="&lt;span style=&quot;font-size: 20px;&quot;&gt;&lt;b&gt;The constants of this project&lt;/b&gt;&lt;/span&gt;&lt;br style=&quot;font-size: 14px&quot;&gt;It contains all constants and environments variables" style="html=1;shadow=0;dashed=0;shape=mxgraph.bootstrap.rrect;rSize=5;strokeColor=#5B646A;html=1;whiteSpace=wrap;fillColor=#6C767D;fontColor=#ffffff;verticalAlign=bottom;align=left;spacing=20;spacingBottom=0;fontSize=14;" vertex="1" parent="1">
          <mxGeometry x="630" y="220" width="250" height="180" as="geometry" />
        </mxCell>
        <mxCell id="oiA-mQmHKhEabUs_qZRi-11" value="constants.py" style="html=1;shadow=0;dashed=0;shape=mxgraph.bootstrap.topButton;rSize=5;perimeter=none;whiteSpace=wrap;fillColor=#697279;strokeColor=#5B646A;fontColor=#ffffff;resizeWidth=1;fontSize=18;align=left;spacing=20;" vertex="1" parent="oiA-mQmHKhEabUs_qZRi-10">
          <mxGeometry width="250" height="50" relative="1" as="geometry" />
        </mxCell>
        <mxCell id="oiA-mQmHKhEabUs_qZRi-16" value="Creating instances of classes" style="text;html=1;align=center;verticalAlign=middle;resizable=0;points=[];autosize=1;strokeColor=none;fillColor=none;" vertex="1" parent="1">
          <mxGeometry x="470" y="130" width="180" height="30" as="geometry" />
        </mxCell>
        <mxCell id="oiA-mQmHKhEabUs_qZRi-18" style="edgeStyle=orthogonalEdgeStyle;rounded=0;orthogonalLoop=1;jettySize=auto;html=1;entryX=1.008;entryY=0.517;entryDx=0;entryDy=0;entryPerimeter=0;" edge="1" parent="1" source="oiA-mQmHKhEabUs_qZRi-17" target="oiA-mQmHKhEabUs_qZRi-10">
          <mxGeometry relative="1" as="geometry" />
        </mxCell>
        <mxCell id="oiA-mQmHKhEabUs_qZRi-17" value="&lt;h1&gt;Code environment&lt;/h1&gt;&lt;p&gt;docker container with ubuntu&lt;/p&gt;" style="text;html=1;strokeColor=none;fillColor=none;spacing=5;spacingTop=-20;whiteSpace=wrap;overflow=hidden;rounded=0;" vertex="1" parent="1">
          <mxGeometry x="1330" y="253" width="190" height="120" as="geometry" />
        </mxCell>
        <mxCell id="oiA-mQmHKhEabUs_qZRi-19" value="Reading environment variables" style="text;html=1;align=center;verticalAlign=middle;resizable=0;points=[];autosize=1;strokeColor=none;fillColor=none;" vertex="1" parent="1">
          <mxGeometry x="915" y="280" width="190" height="30" as="geometry" />
        </mxCell>
        <mxCell id="oiA-mQmHKhEabUs_qZRi-25" value="&lt;b&gt;Tools&lt;/b&gt;" style="text;html=1;strokeColor=none;fillColor=none;align=center;verticalAlign=middle;whiteSpace=wrap;rounded=0;" vertex="1" parent="1">
          <mxGeometry x="520" y="-130" width="60" height="30" as="geometry" />
        </mxCell>
        <mxCell id="oiA-mQmHKhEabUs_qZRi-26" value="" style="rounded=0;whiteSpace=wrap;html=1;" vertex="1" parent="1">
          <mxGeometry x="960" y="-130" width="300" height="310" as="geometry" />
        </mxCell>
        <mxCell id="oiA-mQmHKhEabUs_qZRi-27" value="&lt;b&gt;Configs&lt;/b&gt;" style="text;html=1;strokeColor=none;fillColor=none;align=center;verticalAlign=middle;whiteSpace=wrap;rounded=0;" vertex="1" parent="1">
          <mxGeometry x="1080" y="-130" width="60" height="30" as="geometry" />
        </mxCell>
        <mxCell id="oiA-mQmHKhEabUs_qZRi-20" value="&lt;span style=&quot;font-size: 20px;&quot;&gt;&lt;b&gt;Configuration for the messages module&lt;/b&gt;&lt;/span&gt;&lt;br style=&quot;font-size: 14px&quot;&gt;The configuration contains templates for generating messages in a telegram" style="html=1;shadow=0;dashed=0;shape=mxgraph.bootstrap.rrect;rSize=5;strokeColor=#6C767D;html=1;whiteSpace=wrap;fillColor=#ffffff;fontColor=#212529;verticalAlign=bottom;align=left;spacing=20;spacingBottom=0;fontSize=14;" vertex="1" parent="1">
          <mxGeometry x="985" y="-70" width="250" height="180" as="geometry" />
        </mxCell>
        <mxCell id="oiA-mQmHKhEabUs_qZRi-21" value="messages.json" style="html=1;shadow=0;dashed=0;shape=mxgraph.bootstrap.topButton;rSize=5;perimeter=none;whiteSpace=wrap;fillColor=#F7F7F7;strokeColor=#6C767D;fontColor=#6C767D;resizeWidth=1;fontSize=18;align=left;spacing=20;" vertex="1" parent="oiA-mQmHKhEabUs_qZRi-20">
          <mxGeometry width="250" height="50" relative="1" as="geometry" />
        </mxCell>
        <mxCell id="oiA-mQmHKhEabUs_qZRi-30" value="" style="rounded=0;whiteSpace=wrap;html=1;" vertex="1" parent="1">
          <mxGeometry x="1320" y="-135" width="1330" height="315" as="geometry" />
        </mxCell>
        <mxCell id="oiA-mQmHKhEabUs_qZRi-31" value="&lt;b&gt;External modules&lt;/b&gt;" style="text;html=1;strokeColor=none;fillColor=none;align=center;verticalAlign=middle;whiteSpace=wrap;rounded=0;" vertex="1" parent="1">
          <mxGeometry x="1600" y="-131" width="60" height="30" as="geometry" />
        </mxCell>
        <mxCell id="oiA-mQmHKhEabUs_qZRi-32" value="&lt;b&gt;&lt;font style=&quot;font-size: 20px&quot;&gt;Interactions with vault-server&lt;/font&gt;&lt;/b&gt;&lt;br style=&quot;font-size: 14px&quot;&gt;&lt;br style=&quot;font-size: 14px&quot;&gt;A class that implements convenient methods for reading, writing, and retrieving a list of secrets from vault" style="html=1;shadow=0;dashed=0;shape=mxgraph.bootstrap.rrect;rSize=5;strokeColor=#188C9C;html=1;whiteSpace=wrap;fillColor=#1CA5B8;fontColor=#ffffff;verticalAlign=bottom;align=left;spacing=20;spacingBottom=0;fontSize=14;" vertex="1" parent="1">
          <mxGeometry x="1340" y="-70" width="250" height="210" as="geometry" />
        </mxCell>
        <mxCell id="oiA-mQmHKhEabUs_qZRi-33" value="vault-package" style="html=1;shadow=0;dashed=0;shape=mxgraph.bootstrap.topButton;rSize=5;perimeter=none;whiteSpace=wrap;fillColor=#1BA0B2;strokeColor=#188C9C;fontColor=#ffffff;resizeWidth=1;fontSize=18;align=left;spacing=20;" vertex="1" parent="oiA-mQmHKhEabUs_qZRi-32">
          <mxGeometry width="250" height="50" relative="1" as="geometry" />
        </mxCell>
        <mxCell id="oiA-mQmHKhEabUs_qZRi-34" value="&lt;span style=&quot;font-size: 20px;&quot;&gt;&lt;b&gt;Easy management of user attributes and permissions&lt;/b&gt;&lt;/span&gt;&lt;br style=&quot;font-size: 14px&quot;&gt;A class that implements convenient methods for auth and rate limit functions" style="html=1;shadow=0;dashed=0;shape=mxgraph.bootstrap.rrect;rSize=5;strokeColor=#188C9C;html=1;whiteSpace=wrap;fillColor=#1CA5B8;fontColor=#ffffff;verticalAlign=bottom;align=left;spacing=20;spacingBottom=0;fontSize=14;" vertex="1" parent="1">
          <mxGeometry x="1600" y="-70" width="250" height="210" as="geometry" />
        </mxCell>
        <mxCell id="oiA-mQmHKhEabUs_qZRi-35" value="users-package" style="html=1;shadow=0;dashed=0;shape=mxgraph.bootstrap.topButton;rSize=5;perimeter=none;whiteSpace=wrap;fillColor=#1BA0B2;strokeColor=#188C9C;fontColor=#ffffff;resizeWidth=1;fontSize=18;align=left;spacing=20;" vertex="1" parent="oiA-mQmHKhEabUs_qZRi-34">
          <mxGeometry width="250" height="50" relative="1" as="geometry" />
        </mxCell>
        <mxCell id="oiA-mQmHKhEabUs_qZRi-36" value="&lt;b&gt;&lt;font style=&quot;font-size: 20px&quot;&gt;Info card title&lt;/font&gt;&lt;/b&gt;&lt;br style=&quot;font-size: 14px&quot;&gt;&lt;br style=&quot;font-size: 14px&quot;&gt;Some quick example text to build on the card title and make up the bulk of the card&#39;s content." style="html=1;shadow=0;dashed=0;shape=mxgraph.bootstrap.rrect;rSize=5;strokeColor=#188C9C;html=1;whiteSpace=wrap;fillColor=#1CA5B8;fontColor=#ffffff;verticalAlign=bottom;align=left;spacing=20;spacingBottom=0;fontSize=14;" vertex="1" parent="1">
          <mxGeometry x="1860" y="-70" width="250" height="210" as="geometry" />
        </mxCell>
        <mxCell id="oiA-mQmHKhEabUs_qZRi-37" value="telegram-package" style="html=1;shadow=0;dashed=0;shape=mxgraph.bootstrap.topButton;rSize=5;perimeter=none;whiteSpace=wrap;fillColor=#1BA0B2;strokeColor=#188C9C;fontColor=#ffffff;resizeWidth=1;fontSize=18;align=left;spacing=20;" vertex="1" parent="oiA-mQmHKhEabUs_qZRi-36">
          <mxGeometry width="250" height="50" relative="1" as="geometry" />
        </mxCell>
        <mxCell id="oiA-mQmHKhEabUs_qZRi-38" value="&lt;b&gt;&lt;font style=&quot;font-size: 20px&quot;&gt;Info card title&lt;/font&gt;&lt;/b&gt;&lt;br style=&quot;font-size: 14px&quot;&gt;&lt;br style=&quot;font-size: 14px&quot;&gt;Some quick example text to build on the card title and make up the bulk of the card&#39;s content." style="html=1;shadow=0;dashed=0;shape=mxgraph.bootstrap.rrect;rSize=5;strokeColor=#188C9C;html=1;whiteSpace=wrap;fillColor=#1CA5B8;fontColor=#ffffff;verticalAlign=bottom;align=left;spacing=20;spacingBottom=0;fontSize=14;" vertex="1" parent="1">
          <mxGeometry x="2120" y="-70" width="250" height="210" as="geometry" />
        </mxCell>
        <mxCell id="oiA-mQmHKhEabUs_qZRi-39" value="messages-package" style="html=1;shadow=0;dashed=0;shape=mxgraph.bootstrap.topButton;rSize=5;perimeter=none;whiteSpace=wrap;fillColor=#1BA0B2;strokeColor=#188C9C;fontColor=#ffffff;resizeWidth=1;fontSize=18;align=left;spacing=20;" vertex="1" parent="oiA-mQmHKhEabUs_qZRi-38">
          <mxGeometry width="250" height="50" relative="1" as="geometry" />
        </mxCell>
        <mxCell id="oiA-mQmHKhEabUs_qZRi-40" value="&lt;b&gt;&lt;font style=&quot;font-size: 20px&quot;&gt;Info card title&lt;/font&gt;&lt;/b&gt;&lt;br style=&quot;font-size: 14px&quot;&gt;&lt;br style=&quot;font-size: 14px&quot;&gt;Some quick example text to build on the card title and make up the bulk of the card&#39;s content." style="html=1;shadow=0;dashed=0;shape=mxgraph.bootstrap.rrect;rSize=5;strokeColor=#188C9C;html=1;whiteSpace=wrap;fillColor=#1CA5B8;fontColor=#ffffff;verticalAlign=bottom;align=left;spacing=20;spacingBottom=0;fontSize=14;" vertex="1" parent="1">
          <mxGeometry x="2380" y="-70" width="250" height="210" as="geometry" />
        </mxCell>
        <mxCell id="oiA-mQmHKhEabUs_qZRi-41" value="logger-package" style="html=1;shadow=0;dashed=0;shape=mxgraph.bootstrap.topButton;rSize=5;perimeter=none;whiteSpace=wrap;fillColor=#1BA0B2;strokeColor=#188C9C;fontColor=#ffffff;resizeWidth=1;fontSize=18;align=left;spacing=20;" vertex="1" parent="oiA-mQmHKhEabUs_qZRi-40">
          <mxGeometry width="250" height="50" relative="1" as="geometry" />
        </mxCell>
        <mxCell id="oiA-mQmHKhEabUs_qZRi-42" value="Running the general code" style="text;html=1;align=center;verticalAlign=middle;resizable=0;points=[];autosize=1;strokeColor=none;fillColor=none;" vertex="1" parent="1">
          <mxGeometry x="755" y="418" width="160" height="30" as="geometry" />
        </mxCell>
      </root>
    </mxGraphModel>
  </diagram>
</mxfile>
